# xmcd
#
# Track frame offsets:
#	150
#	19952
#	37762
#	58287
#	76394
#	92501
#	108977
#	126313
#	145066
#	160748
#	177737
#	193957
#	215953
#	235571
#	256638
#	276135
#	293650
#	314609
#	333631
#
# Disc length: 4653 seconds
#
# Revision: 13
# Processed by: cddbd v1.5.2PL0 Copyright (c) Steve Scherf et al.
# Submitted via: EasyCDDAExtractor 15.3.0.1
#
DISCID=1b122b13
DTITLE=Gloria Estefan - The Essential Gloria Estefan - CD 1
DYEAR=2006
DGENRE=Pop
TTITLE0=Dr. Beat
TTITLE1=Rhythm Is Gonna Get You
TTITLE2=Heaven's What I Feel (Radio Edit)
TTITLE3=Everlasting Love (Video Version)
TTITLE4=You'll Be Mine (Party Time) (Rosabel's Fiesta Edit)
TTITLE5=Get On Your Feet
TTITLE6=Go Away (Radio Edit)
TTITLE7=Don't Let This Moment End (Radio Edit)
TTITLE8=No Me Dejes De Querer
TTITLE9=Bad Boy (Single Version)
TTITLE10=1-2-3 (Single Version)
TTITLE11=Oye Mi Canto (Hear My Voice) (English Version)
TTITLE12=Live For Loving You (Remix)
TTITLE13=¡Si Señor!...
TTITLE14=Oye (Pablo Flores English Remix Radio Edit)
TTITLE15=Turn The Beat Around
TTITLE16=Mi Tierra
TTITLE17=Conga
TTITLE18=Doctor Pressure (Clean Radio Edit) (Miami Sound Machine Vs Mylo)
EXTD=YEAR: 2006
EXTT0=
EXTT1=
EXTT2=
EXTT3=
EXTT4=
EXTT5=
EXTT6=
EXTT7=
EXTT8=
EXTT9=
EXTT10=
EXTT11=
EXTT12=
EXTT13=
EXTT14=
EXTT15=
EXTT16=
EXTT17=
EXTT18=
PLAYORDER=
